<svg width="409" height="493" viewBox="0 0 409 493" fill="none" xmlns="http://www.w3.org/2000/svg">
<line opacity="0.1" x1="409" y1="1.5" x2="374" y2="1.5" stroke="#120232" stroke-width="3"/>
<line opacity="0.1" x1="409" y1="36.5" x2="389" y2="36.5" stroke="#120232" stroke-width="3"/>
<line opacity="0.1" x1="409" y1="71.5" x2="389" y2="71.5" stroke="#120232" stroke-width="3"/>
<line opacity="0.1" x1="409" y1="106.5" x2="389" y2="106.5" stroke="#120232" stroke-width="3"/>
<line opacity="0.1" x1="409" y1="141.5" x2="389" y2="141.5" stroke="#120232" stroke-width="3"/>
<line opacity="0.1" x1="409" y1="176.5" x2="343" y2="176.5" stroke="#6013FB" stroke-width="3"/>
<line opacity="0.1" x1="409" y1="211.5" x2="389" y2="211.5" stroke="#120232" stroke-width="3"/>
<line opacity="0.1" x1="409" y1="246.5" x2="389" y2="246.5" stroke="#120232" stroke-width="3"/>
<line opacity="0.1" x1="409" y1="281.5" x2="389" y2="281.5" stroke="#120232" stroke-width="3"/>
<line opacity="0.1" x1="409" y1="316.5" x2="389" y2="316.5" stroke="#120232" stroke-width="3"/>
<line opacity="0.1" x1="409" y1="351.5" x2="374" y2="351.5" stroke="#120232" stroke-width="3"/>
<line opacity="0.1" x1="409" y1="386.5" x2="389" y2="386.5" stroke="#120232" stroke-width="3"/>
<line opacity="0.1" x1="409" y1="421.5" x2="389" y2="421.5" stroke="#120232" stroke-width="3"/>
<line opacity="0.1" x1="409" y1="456.5" x2="389" y2="456.5" stroke="#120232" stroke-width="3"/>
<line opacity="0.1" x1="409" y1="491.5" x2="389" y2="491.5" stroke="#120232" stroke-width="3"/>
</svg>
