<svg width="409" height="3183" viewBox="0 0 409 3183" fill="none" xmlns="http://www.w3.org/2000/svg">
<line opacity="0.1" x1="409" y1="1.5" x2="374" y2="1.5" stroke="#120232" stroke-width="3"/>
<line opacity="0.1" x1="409" y1="36.5" x2="389" y2="36.5" stroke="#120232" stroke-width="3"/>
<line opacity="0.1" x1="409" y1="71.5" x2="389" y2="71.5" stroke="#120232" stroke-width="3"/>
<line opacity="0.1" x1="409" y1="106.5" x2="389" y2="106.5" stroke="#120232" stroke-width="3"/>
<line opacity="0.1" x1="409" y1="141.5" x2="389" y2="141.5" stroke="#120232" stroke-width="3"/>
<line opacity="0.1" x1="409" y1="176.5" x2="343" y2="176.5" stroke="#6013FB" stroke-width="3"/>
<line opacity="0.1" x1="409" y1="211.5" x2="389" y2="211.5" stroke="#120232" stroke-width="3"/>
<line opacity="0.1" x1="409" y1="246.5" x2="389" y2="246.5" stroke="#120232" stroke-width="3"/>
<line opacity="0.1" x1="409" y1="281.5" x2="389" y2="281.5" stroke="#120232" stroke-width="3"/>
<line opacity="0.1" x1="409" y1="316.5" x2="389" y2="316.5" stroke="#120232" stroke-width="3"/>
<line opacity="0.1" x1="409" y1="351.5" x2="374" y2="351.5" stroke="#120232" stroke-width="3"/>
<line opacity="0.1" x1="409" y1="386.5" x2="389" y2="386.5" stroke="#120232" stroke-width="3"/>
<line opacity="0.1" x1="409" y1="421.5" x2="389" y2="421.5" stroke="#120232" stroke-width="3"/>
<line opacity="0.1" x1="409" y1="456.5" x2="389" y2="456.5" stroke="#120232" stroke-width="3"/>
<line opacity="0.1" x1="409" y1="491.5" x2="389" y2="491.5" stroke="#120232" stroke-width="3"/>
<line opacity="0.1" x1="409" y1="539.5" x2="374" y2="539.5" stroke="#120232" stroke-width="3"/>
<line opacity="0.1" x1="409" y1="574.5" x2="389" y2="574.5" stroke="#120232" stroke-width="3"/>
<line opacity="0.1" x1="409" y1="609.5" x2="389" y2="609.5" stroke="#120232" stroke-width="3"/>
<line opacity="0.1" x1="409" y1="644.5" x2="389" y2="644.5" stroke="#120232" stroke-width="3"/>
<line opacity="0.1" x1="409" y1="679.5" x2="389" y2="679.5" stroke="#120232" stroke-width="3"/>
<line opacity="0.1" x1="409" y1="714.5" x2="343" y2="714.5" stroke="#6013FB" stroke-width="3"/>
<line opacity="0.1" x1="409" y1="749.5" x2="389" y2="749.5" stroke="#120232" stroke-width="3"/>
<line opacity="0.1" x1="409" y1="784.5" x2="389" y2="784.5" stroke="#120232" stroke-width="3"/>
<line opacity="0.1" x1="409" y1="819.5" x2="389" y2="819.5" stroke="#120232" stroke-width="3"/>
<line opacity="0.1" x1="409" y1="854.5" x2="389" y2="854.5" stroke="#120232" stroke-width="3"/>
<line opacity="0.1" x1="409" y1="889.5" x2="374" y2="889.5" stroke="#120232" stroke-width="3"/>
<line opacity="0.1" x1="409" y1="924.5" x2="389" y2="924.5" stroke="#120232" stroke-width="3"/>
<line opacity="0.1" x1="409" y1="959.5" x2="389" y2="959.5" stroke="#120232" stroke-width="3"/>
<line opacity="0.1" x1="409" y1="994.5" x2="389" y2="994.5" stroke="#120232" stroke-width="3"/>
<line opacity="0.1" x1="409" y1="1029.5" x2="389" y2="1029.5" stroke="#120232" stroke-width="3"/>
<line opacity="0.1" x1="409" y1="1077.5" x2="374" y2="1077.5" stroke="#120232" stroke-width="3"/>
<line opacity="0.1" x1="409" y1="1112.5" x2="389" y2="1112.5" stroke="#120232" stroke-width="3"/>
<line opacity="0.1" x1="409" y1="1147.5" x2="389" y2="1147.5" stroke="#120232" stroke-width="3"/>
<line opacity="0.1" x1="409" y1="1182.5" x2="389" y2="1182.5" stroke="#120232" stroke-width="3"/>
<line opacity="0.1" x1="409" y1="1217.5" x2="389" y2="1217.5" stroke="#120232" stroke-width="3"/>
<line opacity="0.1" x1="409" y1="1252.5" x2="343" y2="1252.5" stroke="#6013FB" stroke-width="3"/>
<line opacity="0.1" x1="409" y1="1287.5" x2="389" y2="1287.5" stroke="#120232" stroke-width="3"/>
<line opacity="0.1" x1="409" y1="1322.5" x2="389" y2="1322.5" stroke="#120232" stroke-width="3"/>
<line opacity="0.1" x1="409" y1="1357.5" x2="389" y2="1357.5" stroke="#120232" stroke-width="3"/>
<line opacity="0.1" x1="409" y1="1392.5" x2="389" y2="1392.5" stroke="#120232" stroke-width="3"/>
<line opacity="0.1" x1="409" y1="1427.5" x2="374" y2="1427.5" stroke="#120232" stroke-width="3"/>
<line opacity="0.1" x1="409" y1="1462.5" x2="389" y2="1462.5" stroke="#120232" stroke-width="3"/>
<line opacity="0.1" x1="409" y1="1497.5" x2="389" y2="1497.5" stroke="#120232" stroke-width="3"/>
<line opacity="0.1" x1="409" y1="1532.5" x2="389" y2="1532.5" stroke="#120232" stroke-width="3"/>
<line opacity="0.1" x1="409" y1="1567.5" x2="389" y2="1567.5" stroke="#120232" stroke-width="3"/>
<line opacity="0.1" x1="409" y1="1615.5" x2="374" y2="1615.5" stroke="#120232" stroke-width="3"/>
<line opacity="0.1" x1="409" y1="1650.5" x2="389" y2="1650.5" stroke="#120232" stroke-width="3"/>
<line opacity="0.1" x1="409" y1="1685.5" x2="389" y2="1685.5" stroke="#120232" stroke-width="3"/>
<line opacity="0.1" x1="409" y1="1720.5" x2="389" y2="1720.5" stroke="#120232" stroke-width="3"/>
<line opacity="0.1" x1="409" y1="1755.5" x2="389" y2="1755.5" stroke="#120232" stroke-width="3"/>
<line opacity="0.1" x1="409" y1="1790.5" x2="343" y2="1790.5" stroke="#6013FB" stroke-width="3"/>
<line opacity="0.1" x1="409" y1="1825.5" x2="389" y2="1825.5" stroke="#120232" stroke-width="3"/>
<line opacity="0.1" x1="409" y1="1860.5" x2="389" y2="1860.5" stroke="#120232" stroke-width="3"/>
<line opacity="0.1" x1="409" y1="1895.5" x2="389" y2="1895.5" stroke="#120232" stroke-width="3"/>
<line opacity="0.1" x1="409" y1="1930.5" x2="389" y2="1930.5" stroke="#120232" stroke-width="3"/>
<line opacity="0.1" x1="409" y1="1965.5" x2="374" y2="1965.5" stroke="#120232" stroke-width="3"/>
<line opacity="0.1" x1="409" y1="2000.5" x2="389" y2="2000.5" stroke="#120232" stroke-width="3"/>
<line opacity="0.1" x1="409" y1="2035.5" x2="389" y2="2035.5" stroke="#120232" stroke-width="3"/>
<line opacity="0.1" x1="409" y1="2070.5" x2="389" y2="2070.5" stroke="#120232" stroke-width="3"/>
<line opacity="0.1" x1="409" y1="2105.5" x2="389" y2="2105.5" stroke="#120232" stroke-width="3"/>
<line opacity="0.1" x1="409" y1="2153.5" x2="374" y2="2153.5" stroke="#120232" stroke-width="3"/>
<line opacity="0.1" x1="409" y1="2188.5" x2="389" y2="2188.5" stroke="#120232" stroke-width="3"/>
<line opacity="0.1" x1="409" y1="2223.5" x2="389" y2="2223.5" stroke="#120232" stroke-width="3"/>
<line opacity="0.1" x1="409" y1="2258.5" x2="389" y2="2258.5" stroke="#120232" stroke-width="3"/>
<line opacity="0.1" x1="409" y1="2293.5" x2="389" y2="2293.5" stroke="#120232" stroke-width="3"/>
<line opacity="0.1" x1="409" y1="2328.5" x2="343" y2="2328.5" stroke="#6013FB" stroke-width="3"/>
<line opacity="0.1" x1="409" y1="2363.5" x2="389" y2="2363.5" stroke="#120232" stroke-width="3"/>
<line opacity="0.1" x1="409" y1="2398.5" x2="389" y2="2398.5" stroke="#120232" stroke-width="3"/>
<line opacity="0.1" x1="409" y1="2433.5" x2="389" y2="2433.5" stroke="#120232" stroke-width="3"/>
<line opacity="0.1" x1="409" y1="2468.5" x2="389" y2="2468.5" stroke="#120232" stroke-width="3"/>
<line opacity="0.1" x1="409" y1="2503.5" x2="374" y2="2503.5" stroke="#120232" stroke-width="3"/>
<line opacity="0.1" x1="409" y1="2538.5" x2="389" y2="2538.5" stroke="#120232" stroke-width="3"/>
<line opacity="0.1" x1="409" y1="2573.5" x2="389" y2="2573.5" stroke="#120232" stroke-width="3"/>
<line opacity="0.1" x1="409" y1="2608.5" x2="389" y2="2608.5" stroke="#120232" stroke-width="3"/>
<line opacity="0.1" x1="409" y1="2643.5" x2="389" y2="2643.5" stroke="#120232" stroke-width="3"/>
<line opacity="0.1" x1="409" y1="2691.5" x2="374" y2="2691.5" stroke="#120232" stroke-width="3"/>
<line opacity="0.1" x1="409" y1="2726.5" x2="389" y2="2726.5" stroke="#120232" stroke-width="3"/>
<line opacity="0.1" x1="409" y1="2761.5" x2="389" y2="2761.5" stroke="#120232" stroke-width="3"/>
<line opacity="0.1" x1="409" y1="2796.5" x2="389" y2="2796.5" stroke="#120232" stroke-width="3"/>
<line opacity="0.1" x1="409" y1="2831.5" x2="389" y2="2831.5" stroke="#120232" stroke-width="3"/>
<line opacity="0.1" x1="409" y1="2866.5" x2="343" y2="2866.5" stroke="#6013FB" stroke-width="3"/>
<line opacity="0.1" x1="409" y1="2901.5" x2="389" y2="2901.5" stroke="#120232" stroke-width="3"/>
<line opacity="0.1" x1="409" y1="2936.5" x2="389" y2="2936.5" stroke="#120232" stroke-width="3"/>
<line opacity="0.1" x1="409" y1="2971.5" x2="389" y2="2971.5" stroke="#120232" stroke-width="3"/>
<line opacity="0.1" x1="409" y1="3006.5" x2="389" y2="3006.5" stroke="#120232" stroke-width="3"/>
<line opacity="0.1" x1="409" y1="3041.5" x2="374" y2="3041.5" stroke="#120232" stroke-width="3"/>
<line opacity="0.1" x1="409" y1="3076.5" x2="389" y2="3076.5" stroke="#120232" stroke-width="3"/>
<line opacity="0.1" x1="409" y1="3111.5" x2="389" y2="3111.5" stroke="#120232" stroke-width="3"/>
<line opacity="0.1" x1="409" y1="3146.5" x2="389" y2="3146.5" stroke="#120232" stroke-width="3"/>
<line opacity="0.1" x1="409" y1="3181.5" x2="389" y2="3181.5" stroke="#120232" stroke-width="3"/>
</svg>
